<svg width="16" height="16" viewBox="0 0 16 16" fill="none" xmlns="http://www.w3.org/2000/svg">
  <path d="M13.3307 8.33337V4.53337C13.3307 3.41327 13.3307 2.85322 13.1127 2.42539C12.921 2.04907 12.615 1.74311 12.2387 1.55136C11.8109 1.33337 11.2508 1.33337 10.1307 1.33337H5.86406C4.74396 1.33337 4.1839 1.33337 3.75608 1.55136C3.37976 1.74311 3.0738 2.04907 2.88205 2.42539C2.66406 2.85322 2.66406 3.41327 2.66406 4.53337V11.4667C2.66406 12.5868 2.66406 13.1469 2.88205 13.5747C3.0738 13.951 3.37976 14.257 3.75608 14.4487C4.1839 14.6667 4.74396 14.6667 5.86406 14.6667H7.9974M9.33073 7.33337H5.33073M6.66406 10H5.33073M10.6641 4.66671H5.33073M9.66406 12.6667L10.9974 14L13.9974 11" stroke="#163E73" stroke-width="1.5" stroke-linecap="round" stroke-linejoin="round" />
</svg>