<svg width="16" height="15" viewBox="0 0 16 15" fill="none" xmlns="http://www.w3.org/2000/svg">
  <path d="M10.8312 3.83822C12.3933 5.40031 12.3933 7.93297 10.8312 9.49507M5.17432 9.49507C3.61223 7.93297 3.61223 5.40031 5.17432 3.83822M3.28856 11.3807C0.685064 8.77723 0.685064 4.55613 3.28856 1.95264M12.7169 1.95264C15.3204 4.55613 15.3204 8.77723 12.7169 11.3807M8.00275 8C8.73913 8 9.33608 7.40305 9.33608 6.66667C9.33608 5.93029 8.73913 5.33333 8.00275 5.33333C7.26637 5.33333 6.66942 5.93029 6.66942 6.66667C6.66942 7.40305 7.26637 8 8.00275 8ZM8.00275 8V14" stroke="#163E73" stroke-width="1.5" stroke-linecap="round" stroke-linejoin="round" />
</svg>