<svg width="40" height="40" viewBox="0 0 40 40" fill="none" xmlns="http://www.w3.org/2000/svg">
  <path fill-rule="evenodd" clip-rule="evenodd" d="M27.1212 26.842C27.0952 27.1259 26.9846 27.3954 26.8039 27.6158C26.6231 27.8362 26.3805 27.9974 26.1073 28.0786C25.834 28.1598 25.5428 28.1573 25.2711 28.0714C24.9993 27.9854 24.7593 27.82 24.5825 27.5965C23.0279 26.3599 20.6034 24.5814 20.6034 24.5814C20.6034 24.5814 18.849 27.6707 18.5352 27.9873C18.4316 28.0746 18.3111 28.1393 18.1811 28.1772C18.051 28.2152 17.9144 28.2255 17.7801 28.2077C17.6458 28.1898 17.5168 28.1441 17.4013 28.0735C17.2857 28.0029 17.1861 27.9089 17.1089 27.7976C17.0921 27.7508 17.078 27.7033 17.0663 27.655L18.036 22.7315L25.0532 15.8385L15.483 21.2996C15.483 21.2996 11.1615 20.0074 10.5197 19.755C10.3541 19.6645 10.2176 19.529 10.1258 19.3642C10.0341 19.1993 9.99109 19.0119 10.0015 18.8235C10.012 18.6351 10.0755 18.4536 10.1849 18.2999C10.2943 18.1462 10.445 18.0266 10.6196 17.955C11.5324 17.4901 27.6347 11.3401 28.1767 11.1818C28.7186 11.0235 30.1449 10.6113 29.988 11.999C29.8311 13.3867 27.2781 26.0804 27.1212 26.842Z" fill="white" />
</svg>