<svg width="40" height="40" viewBox="0 0 40 40" fill="none" xmlns="http://www.w3.org/2000/svg">
  <path d="M27.7455 21.3628C27.3413 20.8524 27.457 20.6253 27.7455 20.169C27.7507 20.1638 31.0873 15.5532 31.4311 13.9896L31.4331 13.9886C31.604 13.4188 31.4331 13 30.6071 13H27.8736C27.1778 13 26.8569 13.3594 26.6851 13.7615C26.6851 13.7615 25.2933 17.0929 23.3245 19.2523C22.6891 19.8763 22.3953 20.0763 22.0484 20.0763C21.8776 20.0763 21.612 19.8763 21.612 19.3065V13.9886C21.612 13.3052 21.4172 13 20.8411 13H16.543C16.1066 13 15.8472 13.3188 15.8472 13.6156C15.8472 14.2636 16.8316 14.4125 16.9337 16.2355V20.1909C16.9337 21.0576 16.7764 21.217 16.4274 21.217C15.4982 21.217 13.2429 17.872 11.9064 14.0438C11.6366 13.3011 11.3731 13.001 10.672 13.001H7.93753C7.1573 13.001 7 13.3604 7 13.7625C7 14.473 7.9292 18.0054 11.321 22.6722C13.5815 25.8577 16.7649 27.5838 19.6609 27.5838C21.4015 27.5838 21.614 27.2005 21.614 26.5411C21.614 23.4972 21.4568 23.2097 22.3287 23.2097C22.7328 23.2097 23.4287 23.4097 25.0537 24.9462C26.9111 26.7682 27.2163 27.5838 28.2559 27.5838H30.9894C31.7686 27.5838 32.1634 27.2005 31.9363 26.4442C31.4165 24.8535 27.9039 21.5815 27.7455 21.3628Z" fill="white" />
</svg>