<svg width="60" height="60" viewBox="0 0 60 60" fill="none" xmlns="http://www.w3.org/2000/svg">
<g clip-path="url(#clip0_107_2053)">
<path fill-rule="evenodd" clip-rule="evenodd" d="M30 0.63916C46.2128 0.63916 59.361 13.7874 59.361 30.0002C59.361 46.213 46.2128 59.3612 30 59.3612C13.787 59.3612 0.639038 46.213 0.639038 30.0002C0.639038 13.7874 13.787 0.63916 30 0.63916Z" fill="#163E73"/>
<path d="M60.3038 30.0002H58.4182L58.3812 28.5372L58.2714 27.0938L58.0906 25.6716L57.8406 24.2728L57.5232 22.8982L57.1404 21.5502L56.6936 20.2302L56.1848 18.94L55.6158 17.6814L54.9884 16.4562L54.3038 15.2664L53.5646 14.1132L52.7722 12.9988L51.9282 11.9252L51.0348 10.8936L50.0938 9.90641L49.1066 8.96541L48.075 8.07201L47.0014 7.22801L45.887 6.43561L44.7338 5.69641L43.544 5.01181L42.3188 4.38441L41.0602 3.81541L39.77 3.30661L38.45 2.85981L37.102 2.47701L35.7274 2.15961L34.3286 1.90961L32.9064 1.72881L31.463 1.61901L30 1.58201V-0.303589L31.5582 -0.264189L33.0968 -0.147189L34.613 0.0456111L36.1054 0.312011L37.5716 0.650611L39.01 1.05901L40.4184 1.53581L41.7946 2.07861L43.1372 2.68561L44.444 3.35501L45.713 4.08481L46.9426 4.87321L48.1306 5.71801L49.2754 6.61761L50.3746 7.56981L51.427 8.57321L52.4304 9.62561L53.3826 10.7248L54.2822 11.8696L55.127 13.0576L55.9154 14.2872L56.6452 15.5562L57.3146 16.863L57.9216 18.2056L58.4644 19.5818L58.9412 20.9902L59.3496 22.4286L59.6882 23.8948L59.9546 25.3872L60.1474 26.9034L60.2644 28.442L60.3038 30.0002ZM30 60.304V58.4184L31.463 58.3814L32.9064 58.2716L34.3286 58.0908L35.7274 57.8408L37.102 57.5234L38.45 57.1406L39.77 56.6938L41.0602 56.185L42.3188 55.616L43.544 54.9886L44.7338 54.304L45.887 53.5648L47.0014 52.7724L48.075 51.9284L49.1066 51.035L50.0938 50.094L51.0348 49.1068L51.9282 48.0752L52.7722 47.0016L53.5646 45.8872L54.3038 44.734L54.9884 43.5442L55.6158 42.319L56.1848 41.0604L56.6936 39.7702L57.1404 38.4502L57.5232 37.1022L57.8406 35.7276L58.0906 34.3288L58.2714 32.9066L58.3812 31.4632L58.4182 30.0002H60.3038L60.2644 31.5584L60.1474 33.097L59.9546 34.6132L59.6882 36.1056L59.3496 37.5718L58.9412 39.0102L58.4644 40.4186L57.9216 41.7948L57.3146 43.1374L56.6452 44.4442L55.9154 45.7132L55.127 46.9428L54.2822 48.1308L53.3826 49.2756L52.4304 50.3748L51.427 51.4272L50.3746 52.4306L49.2754 53.3828L48.1306 54.2824L46.9426 55.1272L45.713 55.9156L44.444 56.6454L43.1372 57.3148L41.7946 57.9218L40.4184 58.4646L39.01 58.9414L37.5716 59.3498L36.1054 59.6884L34.613 59.9548L33.0968 60.1476L31.5582 60.2646L30 60.304ZM-0.303772 30.0002H1.58183L1.61883 31.4632L1.72863 32.9066L1.90943 34.3288L2.15943 35.7276L2.47683 37.1022L2.85963 38.4502L3.30643 39.7702L3.81523 41.0604L4.38423 42.319L5.01163 43.5442L5.69623 44.734L6.43523 45.8872L7.22783 47.0016L8.07163 48.0752L8.96523 49.1066L9.90623 50.094L10.8934 51.035L11.925 51.9284L12.9986 52.7724L14.113 53.5648L15.266 54.304L16.456 54.9886L17.6812 55.616L18.9396 56.185L20.23 56.6938L21.55 57.1406L22.898 57.5234L24.2724 57.8408L25.6714 58.0908L27.0936 58.2716L28.537 58.3814L30 58.4184V60.304L28.4418 60.2646L26.9032 60.1476L25.387 59.9548L23.8944 59.6884L22.4284 59.3498L20.99 58.9414L19.5816 58.4646L18.2052 57.9218L16.8628 57.3148L15.556 56.6454L14.2868 55.9156L13.0574 55.1272L11.8694 54.2824L10.7246 53.3828L9.62543 52.4306L8.57303 51.4272L7.56963 50.375L6.61723 49.2756L5.71783 48.1308L4.87283 46.9428L4.08463 45.7132L3.35483 44.4442L2.68543 43.1374L2.07843 41.7948L1.53563 40.4186L1.05883 39.0102L0.650428 37.5718L0.311828 36.1056L0.045428 34.6132L-0.147372 33.097L-0.264372 31.5584L-0.303772 30.0002ZM30 -0.303589V1.58201L28.537 1.61901L27.0936 1.72881L25.6714 1.90961L24.2724 2.15961L22.898 2.47701L21.55 2.85981L20.23 3.30661L18.9396 3.81541L17.6812 4.38441L16.456 5.01181L15.266 5.69641L14.113 6.43561L12.9986 7.22801L11.925 8.07201L10.8934 8.96541L9.90623 9.90641L8.96523 10.8938L8.07163 11.9252L7.22783 12.9988L6.43523 14.1132L5.69623 15.2664L5.01163 16.4562L4.38423 17.6814L3.81523 18.94L3.30643 20.2302L2.85963 21.5502L2.47683 22.8982L2.15943 24.2728L1.90943 25.6716L1.72863 27.0938L1.61883 28.5372L1.58183 30.0002H-0.303772L-0.264372 28.442L-0.147372 26.9034L0.045428 25.3872L0.311828 23.8948L0.650428 22.4286L1.05883 20.9902L1.53563 19.5818L2.07843 18.2056L2.68543 16.863L3.35483 15.5562L4.08463 14.2872L4.87283 13.0576L5.71783 11.8696L6.61723 10.7248L7.56963 9.62541L8.57303 8.57321L9.62543 7.56981L10.7246 6.61761L11.8694 5.71801L13.0574 4.87321L14.2868 4.08481L15.556 3.35501L16.8628 2.68561L18.2052 2.07861L19.5816 1.53581L20.99 1.05901L22.4284 0.650611L23.8944 0.312011L25.387 0.0456111L26.9032 -0.147189L28.4418 -0.264189L30 -0.303589Z" fill="#FEFEFE"/>
<path fill-rule="evenodd" clip-rule="evenodd" d="M22.5544 16.8551L22.559 17.3697L22.5592 19.9243L20.91 19.9249L16.975 25.3979C19.399 28.0477 21.1026 32.6301 21.334 38.6733C24.2816 40.1843 27.2292 41.6955 30.1766 43.2065L38.8416 38.7607C38.8744 33.6943 40.5406 28.6555 43.025 25.5113L39.0674 19.9941L37.4842 19.9873L37.4786 17.3299L37.4816 16.9203L37.2424 16.9211L36.0564 17.4509L34.6672 16.8067L34.4362 16.8163L33.012 17.4481L31.6348 16.8125L31.3844 16.8135L29.9682 17.4477L28.5856 16.7989L28.3418 16.8055L27.0118 17.4511L25.6034 16.7941L25.3054 16.7947L23.9054 17.4261L22.7226 16.8609L22.5544 16.8551Z" fill="#FEFEFE"/>
<path fill-rule="evenodd" clip-rule="evenodd" d="M22.5418 16.843L22.5466 17.3576V19.9122L20.8974 19.9128L16.9626 25.3858C19.3866 28.0358 21.09 32.618 21.3216 38.6612C24.269 40.1722 27.2166 41.6834 30.1642 43.1944L38.829 38.7486C38.8618 33.6822 40.528 28.6436 43.0124 25.4992L39.0548 19.982L37.4716 19.9752L37.466 17.318L37.4692 16.9084L37.2298 16.9092L36.0438 17.4388L34.6548 16.7946L34.4236 16.8042L32.9994 17.436L31.6222 16.8006C31.6222 16.8004 31.3718 16.8014 31.3718 16.8014L29.9558 17.4358L28.5732 16.7868L28.3294 16.7934L26.9992 17.439L25.5908 16.782L25.293 16.7826L23.8928 17.414L22.71 16.849L22.5418 16.843ZM24.8724 18.133L23.9454 18.664L22.9662 18.1332V21.3834H24.8724V18.133ZM27.9194 18.133L26.9924 18.664L26.0132 18.1332V21.3834H27.9194V18.133ZM30.9534 18.133L30.0264 18.664L29.047 18.1332V21.3834H30.9534V18.133ZM33.968 18.133L33.0408 18.664L32.0616 18.1332V21.3834H33.968V18.133ZM37.0084 18.133L36.0814 18.664L35.102 18.1332V21.3834H37.0084V18.133ZM21.3188 20.6786L22.531 20.6832L22.537 21.7996C34.6504 21.7832 32.5032 21.813 37.4622 21.7796L37.477 20.7226L38.6216 20.727L42.1204 25.4722C39.5302 28.6292 38.0808 33.4986 38.156 38.2306L30.1382 42.3328L22.1222 38.1794C21.6816 32.3148 20.5036 28.603 17.9268 25.4108L21.3188 20.6786ZM23.565 33.2272C23.7792 34.4278 23.9526 35.6902 23.9648 36.8536C26.0326 37.9202 28.0532 38.9624 30.1208 40.0288C32.154 38.9976 34.1872 37.9664 36.2204 36.9352C36.3106 35.5696 36.4322 34.4692 36.656 33.2482C32.2924 33.2412 27.9286 33.234 23.565 33.2272ZM34.978 34.501L34.6714 35.3066L35.0938 35.3048L35.0962 36.84H35.0424H33.407H31.9604H30.2292L30.1118 36.553H29.2998L29.2062 36.84H28.6048L29.067 34.961H27.32L27.3396 36.84H25.269V34.7196V34.2246H27.1452H29.3092H29.358H29.8946H31.3494L32.0236 36.279H33.2126V35.615H32.9236L33.1146 34.9844H31.9822V34.2246H33.8632H34.9776L34.978 34.501ZM29.4272 35.9918H29.9466L29.6568 35.1198L29.4272 35.9918ZM25.8938 28.494C25.8938 28.494 26.4438 28.4982 26.5336 28.5538C26.6232 28.6096 26.6772 28.6502 26.8206 28.6502C26.9642 28.6502 27.042 28.6612 26.9702 28.7912C26.8986 28.921 26.6868 29.1808 26.6868 29.1808L25.8402 28.6796C25.7396 28.5956 25.8156 28.5274 25.8938 28.494ZM22.3754 22.7054H37.5696L39.63 25.5468C38.2994 27.0214 37.3954 30.0786 36.7396 32.7572H36.4452C36.3982 32.6108 36.351 32.4644 36.304 32.318C36.304 32.318 36.3138 32.0226 36.1392 31.997C35.5082 31.904 35.707 31.8854 35.5458 31.415C35.1626 30.9606 34.729 30.2836 34.5858 29.8294C34.5858 29.8294 34.662 29.6514 34.5668 29.533C34.4714 29.4146 34.2996 29.2032 34.2042 29.1634C34.109 29.124 33.765 28.8476 33.708 28.7092C33.6508 28.571 33.1924 27.38 33.345 27.321C33.4982 27.2618 33.5856 27.2236 33.5856 27.2236C33.6728 27.0564 32.3626 26.507 32.3 26.6568C31.2692 26.6764 30.5774 26.6812 29.547 26.701C29.547 26.701 28.7834 26.5424 29.1076 25.9498C29.4324 25.3572 29.566 25.219 29.566 25.219C29.566 25.219 29.948 24.7648 29.9288 24.6658C29.9098 24.567 29.9288 24.4882 30.0814 24.5276C30.234 24.567 30.8068 24.508 30.8068 24.508C30.8068 24.508 30.9784 24.2702 30.864 24.2308C30.8068 24.2112 30.7114 24.191 30.6298 24.1764C30.549 24.1614 30.482 24.1516 30.482 24.1516C30.4312 24.1318 30.3802 24.1122 30.3294 24.0924C30.2276 24.1056 30.126 24.1186 30.0242 24.1318C30.0242 24.1318 29.8902 24.1516 29.8716 23.9936C29.852 23.8356 29.7262 23.6776 29.8978 23.6974C30.0702 23.717 30.1768 23.8356 30.3486 23.8356C30.5202 23.8356 31.6274 23.8556 31.818 23.8356C32.2522 23.777 33.296 23.474 33.4974 23.0042L33.0328 22.9092C32.2056 23.4502 31.9704 23.4754 31.3794 23.282C30.8878 23.5614 30.2148 23.2678 29.628 23.0958C29.314 23.2868 28.3956 22.841 28.4858 22.766C28.4858 22.766 28.2488 23.2826 28.4784 23.3222C28.6488 23.41 28.9568 23.5686 29.251 23.5592C29.251 23.5592 29.3578 23.5988 29.2624 23.6776C29.1672 23.7566 28.5012 23.6898 28.5012 23.6898C28.4504 23.7162 28.3996 23.7426 28.3486 23.7688C28.3486 23.7688 27.7184 23.7886 27.7374 23.9464C27.7316 24.1108 27.7806 24.4558 27.9506 24.4364C28.0206 24.4364 28.4214 24.567 28.444 24.567C28.444 24.567 28.5392 24.6658 28.4248 24.824C28.3104 24.9818 27.5808 25.7722 27.5808 25.7722C27.5808 25.7722 26.913 26.8666 26.932 27.0048C26.9512 27.1434 26.6266 27.2618 26.6648 27.4196C26.5954 27.5778 26.6382 27.9356 26.722 27.9356C26.314 27.9356 25.906 27.9688 25.498 27.9688C25.498 27.9688 24.9698 28.2758 25.1226 28.4932C25.1802 28.7432 25.3074 28.8792 25.3576 28.8622C25.6692 29.0796 26.0456 29.2966 26.3574 29.514C26.052 29.9418 25.8442 30.2704 25.5388 30.6982C25.2142 31.0636 24.826 31.3632 24.4508 31.6758C24.4508 31.6758 23.5916 32.4168 23.7064 32.476C23.8208 32.5352 24.504 32.3576 24.504 32.3576C24.504 32.3576 24.3894 32.3678 24.6378 32.0218C24.886 31.6758 25.0194 31.6758 25.0194 31.6758C25.1784 31.5344 25.37 31.393 25.529 31.2514C25.6164 31.1494 26.7842 29.9614 26.8576 29.7706C26.9722 29.7706 27.3692 30.0796 27.3692 30.0796C27.3692 30.0796 28.308 30.0464 28.3652 29.928C28.4224 29.8096 27.9438 29.5724 27.9438 29.5724C27.9438 29.5724 27.6936 29.7764 27.5602 29.737C27.4264 29.6976 27.1438 29.454 27.1438 29.454C27.3602 29.2564 27.4466 29.1254 27.6632 28.9276C27.6632 28.9276 28.1344 29.119 28.2678 29.119C28.4016 29.119 29.6614 28.915 29.833 28.915C30.0052 28.915 30.9936 28.8488 30.9936 28.8488C30.9936 28.8488 31.6198 29.3358 31.658 29.4936C31.696 29.6514 31.7418 29.8096 31.6464 29.9084C31.5986 29.9576 31.3986 30.1956 31.1812 30.3898C30.8298 30.7036 30.531 30.982 30.2532 31.2712C29.8706 31.3108 29.2284 32.568 29.299 32.5154C29.2418 32.476 30.0072 32.371 30.0072 32.371C30.0036 32.1294 30.084 31.9738 30.2164 31.7696C30.28 31.6714 30.5762 31.653 30.6402 31.5472C30.9546 31.0286 31.3764 30.6222 31.822 30.4686C31.822 30.4686 32.5418 29.981 32.4846 29.8626C32.4274 29.744 32.0238 29.0418 32.2908 29.101C32.5278 28.9428 33.8138 29.6198 33.8318 29.7504C34.182 30.2508 34.5316 30.751 34.8818 31.2514C35.1064 31.8928 35.717 32.3946 36.3902 32.7572H23.4862C22.912 30.0724 21.7368 26.8952 20.4442 25.4462L22.3754 22.7054Z" stroke="#FEFEFE" stroke-width="0.491339" stroke-miterlimit="22.9256"/>
<path fill-rule="evenodd" clip-rule="evenodd" d="M22.5418 16.843L22.5466 17.3576V19.9122L20.8974 19.9128L16.9626 25.3858C19.3866 28.0358 21.09 32.618 21.3216 38.6612C24.269 40.1722 27.2166 41.6834 30.1642 43.1944L38.829 38.7486C38.8618 33.6822 40.528 28.6436 43.0124 25.4992L39.0548 19.982L37.4716 19.9752L37.466 17.318L37.4692 16.9084L37.2298 16.9092L36.0438 17.4388L34.6548 16.7946L34.4236 16.8042L32.9994 17.436L31.6222 16.8006C31.6222 16.8004 31.3718 16.8014 31.3718 16.8014L29.9558 17.4358L28.5732 16.7868L28.3294 16.7934L26.9992 17.439L25.5908 16.782L25.293 16.7826L23.8928 17.414L22.71 16.849L22.5418 16.843ZM24.8724 18.133L23.9454 18.664L22.9662 18.1332V21.3834H24.8724V18.133ZM27.9194 18.133L26.9924 18.664L26.0132 18.1332V21.3834H27.9194V18.133ZM30.9534 18.133L30.0264 18.664L29.047 18.1332V21.3834H30.9534V18.133ZM33.968 18.133L33.0408 18.664L32.0616 18.1332V21.3834H33.968V18.133ZM37.0084 18.133L36.0814 18.664L35.102 18.1332V21.3834H37.0084V18.133ZM21.3188 20.6786L22.531 20.6832L22.537 21.7996C34.6504 21.7832 32.5032 21.813 37.4622 21.7796L37.477 20.7226L38.6216 20.727L42.1204 25.4722C39.5302 28.6292 38.0808 33.4986 38.156 38.2306L30.1382 42.3328L22.1222 38.1794C21.6816 32.3148 20.5036 28.603 17.9268 25.4108L21.3188 20.6786ZM23.565 33.2272C23.7792 34.4278 23.9526 35.6902 23.9648 36.8536C26.0326 37.9202 28.0532 38.9624 30.1208 40.0288C32.154 38.9976 34.1872 37.9664 36.2204 36.9352C36.3106 35.5696 36.4322 34.4692 36.656 33.2482C32.2924 33.2412 27.9286 33.234 23.565 33.2272ZM34.978 34.501L34.6714 35.3066L35.0938 35.3048L35.0962 36.84H35.0424H33.407H31.9604H30.2292L30.1118 36.553H29.2998L29.2062 36.84H28.6048L29.067 34.961H27.32L27.3396 36.84H25.269V34.7196V34.2246H27.1452H29.3092H29.358H29.8946H31.3494L32.0236 36.279H33.2126V35.615H32.9236L33.1146 34.9844H31.9822V34.2246H33.8632H34.9776L34.978 34.501ZM29.4272 35.9918H29.9466L29.6568 35.1198L29.4272 35.9918ZM25.8938 28.494C25.8938 28.494 26.4438 28.4982 26.5336 28.5538C26.6232 28.6096 26.6772 28.6502 26.8206 28.6502C26.9642 28.6502 27.042 28.6612 26.9702 28.7912C26.8986 28.921 26.6868 29.1808 26.6868 29.1808L25.8402 28.6796C25.7396 28.5956 25.8156 28.5274 25.8938 28.494ZM22.3754 22.7054H37.5696L39.63 25.5468C38.2994 27.0214 37.3954 30.0786 36.7396 32.7572H36.4452C36.3982 32.6108 36.351 32.4644 36.304 32.318C36.304 32.318 36.3138 32.0226 36.1392 31.997C35.5082 31.904 35.707 31.8854 35.5458 31.415C35.1626 30.9606 34.729 30.2836 34.5858 29.8294C34.5858 29.8294 34.662 29.6514 34.5668 29.533C34.4714 29.4146 34.2996 29.2032 34.2042 29.1634C34.109 29.124 33.765 28.8476 33.708 28.7092C33.6508 28.571 33.1924 27.38 33.345 27.321C33.4982 27.2618 33.5856 27.2236 33.5856 27.2236C33.6728 27.0564 32.3626 26.507 32.3 26.6568C31.2692 26.6764 30.5774 26.6812 29.547 26.701C29.547 26.701 28.7834 26.5424 29.1076 25.9498C29.4324 25.3572 29.566 25.219 29.566 25.219C29.566 25.219 29.948 24.7648 29.9288 24.6658C29.9098 24.567 29.9288 24.4882 30.0814 24.5276C30.234 24.567 30.8068 24.508 30.8068 24.508C30.8068 24.508 30.9784 24.2702 30.864 24.2308C30.8068 24.2112 30.7114 24.191 30.6298 24.1764C30.549 24.1614 30.482 24.1516 30.482 24.1516C30.4312 24.1318 30.3802 24.1122 30.3294 24.0924C30.2276 24.1056 30.126 24.1186 30.0242 24.1318C30.0242 24.1318 29.8902 24.1516 29.8716 23.9936C29.852 23.8356 29.7262 23.6776 29.8978 23.6974C30.0702 23.717 30.1768 23.8356 30.3486 23.8356C30.5202 23.8356 31.6274 23.8556 31.818 23.8356C32.2522 23.777 33.296 23.474 33.4974 23.0042L33.0328 22.9092C32.2056 23.4502 31.9704 23.4754 31.3794 23.282C30.8878 23.5614 30.2148 23.2678 29.628 23.0958C29.314 23.2868 28.3956 22.841 28.4858 22.766C28.4858 22.766 28.2488 23.2826 28.4784 23.3222C28.6488 23.41 28.9568 23.5686 29.251 23.5592C29.251 23.5592 29.3578 23.5988 29.2624 23.6776C29.1672 23.7566 28.5012 23.6898 28.5012 23.6898C28.4504 23.7162 28.3996 23.7426 28.3486 23.7688C28.3486 23.7688 27.7184 23.7886 27.7374 23.9464C27.7316 24.1108 27.7806 24.4558 27.9506 24.4364C28.0206 24.4364 28.4214 24.567 28.444 24.567C28.444 24.567 28.5392 24.6658 28.4248 24.824C28.3104 24.9818 27.5808 25.7722 27.5808 25.7722C27.5808 25.7722 26.913 26.8666 26.932 27.0048C26.9512 27.1434 26.6266 27.2618 26.6648 27.4196C26.5954 27.5778 26.6382 27.9356 26.722 27.9356C26.314 27.9356 25.906 27.9688 25.498 27.9688C25.498 27.9688 24.9698 28.2758 25.1226 28.4932C25.1802 28.7432 25.3074 28.8792 25.3576 28.8622C25.6692 29.0796 26.0456 29.2966 26.3574 29.514C26.052 29.9418 25.8442 30.2704 25.5388 30.6982C25.2142 31.0636 24.826 31.3632 24.4508 31.6758C24.4508 31.6758 23.5916 32.4168 23.7064 32.476C23.8208 32.5352 24.504 32.3576 24.504 32.3576C24.504 32.3576 24.3894 32.3678 24.6378 32.0218C24.886 31.6758 25.0194 31.6758 25.0194 31.6758C25.1784 31.5344 25.37 31.393 25.529 31.2514C25.6164 31.1494 26.7842 29.9614 26.8576 29.7706C26.9722 29.7706 27.3692 30.0796 27.3692 30.0796C27.3692 30.0796 28.308 30.0464 28.3652 29.928C28.4224 29.8096 27.9438 29.5724 27.9438 29.5724C27.9438 29.5724 27.6936 29.7764 27.5602 29.737C27.4264 29.6976 27.1438 29.454 27.1438 29.454C27.3602 29.2564 27.4466 29.1254 27.6632 28.9276C27.6632 28.9276 28.1344 29.119 28.2678 29.119C28.4016 29.119 29.6614 28.915 29.833 28.915C30.0052 28.915 30.9936 28.8488 30.9936 28.8488C30.9936 28.8488 31.6198 29.3358 31.658 29.4936C31.696 29.6514 31.7418 29.8096 31.6464 29.9084C31.5986 29.9576 31.3986 30.1956 31.1812 30.3898C30.8298 30.7036 30.531 30.982 30.2532 31.2712C29.8706 31.3108 29.2284 32.568 29.299 32.5154C29.2418 32.476 30.0072 32.371 30.0072 32.371C30.0036 32.1294 30.084 31.9738 30.2164 31.7696C30.28 31.6714 30.5762 31.653 30.6402 31.5472C30.9546 31.0286 31.3764 30.6222 31.822 30.4686C31.822 30.4686 32.5418 29.981 32.4846 29.8626C32.4274 29.744 32.0238 29.0418 32.2908 29.101C32.5278 28.9428 33.8138 29.6198 33.8318 29.7504C34.182 30.2508 34.5316 30.751 34.8818 31.2514C35.1064 31.8928 35.717 32.3946 36.3902 32.7572H23.4862C22.912 30.0724 21.7368 26.8952 20.4442 25.4462L22.3754 22.7054Z" fill="#163E73"/>
<path fill-rule="evenodd" clip-rule="evenodd" d="M30 3.59583C31.2122 3.59583 32.4052 3.67823 33.5738 3.83783C33.5436 4.02123 33.5282 4.20983 33.5282 4.40223C33.5282 6.21303 34.9154 7.68162 36.6262 7.68162C38.0074 7.68162 39.1774 6.72403 39.577 5.40223C41.919 6.32242 44.0976 7.56983 46.0572 9.08863C45.601 9.65983 45.3258 10.3982 45.3258 11.2044C45.3258 13.0154 46.7132 14.4838 48.4238 14.4838C49.262 14.4838 50.0222 14.1312 50.58 13.5588C52.1204 15.499 53.3942 17.6618 54.346 19.9912C53.1812 20.4626 52.3538 21.657 52.3538 23.0556C52.3538 24.8666 53.741 26.335 55.4518 26.335C55.6542 26.335 55.852 26.3142 56.0436 26.275C56.215 27.492 56.304 28.7358 56.304 30.0002C56.304 31.1142 56.2342 32.2116 56.1006 33.2894C55.8752 33.2342 55.6406 33.2052 55.3994 33.2052C53.6886 33.2052 52.3014 34.674 52.3014 36.4848C52.3014 37.9648 53.228 39.2158 54.5006 39.6238C53.5818 41.9782 52.3352 44.1674 50.8184 46.1362C50.2974 45.7156 49.6472 45.4658 48.9414 45.4658C47.2308 45.4658 45.8434 46.9344 45.8434 48.7452C45.8434 49.4486 46.0526 50.1002 46.409 50.6344C44.4448 52.2108 42.2506 53.5104 39.8852 54.4748C39.53 53.0782 38.3254 52.05 36.8938 52.05C35.1832 52.05 33.7958 53.5188 33.7958 55.3296C33.7958 55.6014 33.8272 55.8652 33.886 56.1176C32.6178 56.3064 31.3204 56.4046 30 56.4046C28.814 56.4046 27.647 56.324 26.5026 56.1714C26.57 55.9026 26.6058 55.6206 26.6058 55.3296C26.6058 53.5188 25.2184 52.05 23.5076 52.05C22.0268 52.05 20.7886 53.1504 20.4826 54.6208C18.056 53.6748 15.8044 52.377 13.7884 50.791C14.3468 50.1978 14.692 49.3798 14.692 48.4766C14.692 46.6658 13.3046 45.197 11.5938 45.197C10.6808 45.197 9.86004 45.6154 9.29304 46.281C7.79364 44.3626 6.55344 42.2304 5.62444 39.938C6.91844 39.5442 7.86504 38.282 7.86504 36.786C7.86504 34.9752 6.47764 33.5066 4.76684 33.5066C4.48124 33.5066 4.20484 33.5476 3.94224 33.6242C3.78004 32.4394 3.69604 31.2296 3.69604 30.0002C3.69604 28.883 3.76604 27.7818 3.90044 26.701C4.09424 26.7412 4.29425 26.7626 4.49924 26.7626C6.21004 26.7626 7.59724 25.294 7.59724 23.483C7.59724 22.0424 6.71924 20.8182 5.49884 20.3778C6.47024 17.8882 7.80764 15.5826 9.44424 13.5276C10.0004 14.0892 10.7532 14.434 11.582 14.434C13.2928 14.434 14.6802 12.9654 14.6802 11.1546C14.6802 10.3612 14.414 9.63343 13.9708 9.06623C15.7908 7.65983 17.799 6.48723 19.9514 5.59303C20.4018 6.81523 21.5246 7.68162 22.8384 7.68162C24.549 7.68162 25.9364 6.21303 25.9364 4.40223C25.9364 4.23643 25.9248 4.07363 25.9024 3.91443C27.2378 3.70483 28.606 3.59583 30 3.59583ZM30 14.8832C38.3156 14.8832 45.0594 21.6528 45.0594 30.0002C45.0594 38.3476 38.3156 45.1172 30 45.1172C21.6844 45.1172 14.9404 38.3476 14.9404 30.0002C14.9404 21.6528 21.6844 14.8832 30 14.8832Z" fill="#FEFEFE"/>
<path d="M15.1024 39.5084L15.4878 40.0174L12.2164 42.6534L13.5508 44.4152L16.8222 41.779L17.2078 42.2878L13.4976 45.2776L11.3922 42.4982L15.1024 39.5084ZM11.7856 36.7188C12.3228 36.4722 12.8078 36.4078 13.2408 36.527C13.674 36.6462 13.9782 36.9074 14.1534 37.3132C14.2246 37.478 14.2684 37.632 14.287 37.7758C14.3052 37.9198 14.3054 38.0758 14.286 38.2442L15.6378 37.6234L15.8796 38.184L11.463 40.2122L11.2212 39.6518L11.5586 39.4968C11.3772 39.4132 11.2086 39.3052 11.0536 39.173C10.899 39.0416 10.7782 38.8742 10.6918 38.674C10.527 38.2924 10.5448 37.9284 10.7454 37.5804C10.946 37.2322 11.2924 36.9452 11.7856 36.7188ZM12.096 37.2686C11.7282 37.4374 11.4686 37.6298 11.3176 37.844C11.1668 38.0584 11.15 38.3012 11.2674 38.574C11.336 38.7326 11.4368 38.8704 11.5686 38.9864C11.7006 39.1036 11.85 39.2036 12.015 39.2872L13.8432 38.4476C13.8496 38.268 13.8428 38.1212 13.8224 38.005C13.8022 37.89 13.763 37.7642 13.7048 37.629C13.5796 37.339 13.3802 37.1614 13.1042 37.0944C12.8288 37.0282 12.4924 37.0864 12.096 37.2686ZM10.9562 32.8744C11.5378 32.747 12.0174 32.7932 12.3926 33.0124C12.7688 33.2328 13.0066 33.5834 13.1056 34.0638C13.2076 34.5592 13.1246 34.985 12.857 35.3408C12.5884 35.6966 12.174 35.9354 11.6122 36.0586C11.0356 36.185 10.557 36.1374 10.1766 35.9146C9.7966 35.693 9.55781 35.3424 9.45901 34.8632C9.36001 34.383 9.4402 33.9626 9.6992 33.603C9.9574 33.2448 10.3774 33.0012 10.9562 32.8744ZM11.0836 33.493C10.6368 33.591 10.3216 33.7476 10.1388 33.964C9.956 34.1796 9.8966 34.443 9.9604 34.7534C10.0248 35.0658 10.1834 35.2836 10.4358 35.405C10.6878 35.526 11.038 35.538 11.4848 35.4402C11.9176 35.3452 12.2286 35.1882 12.4176 34.9706C12.6064 34.7526 12.6688 34.4862 12.6042 34.1736C12.5408 33.8654 12.3814 33.65 12.1274 33.5294C11.8728 33.4086 11.5248 33.3962 11.0836 33.493ZM10.7788 27.4514C11.0924 27.4628 11.3694 27.5128 11.6074 27.6006C11.8464 27.6882 12.0414 27.8 12.1932 27.9368C12.3462 28.075 12.461 28.2286 12.5362 28.3994C12.6114 28.5692 12.6464 28.7454 12.6404 28.9278C12.6356 29.0658 12.6068 29.184 12.5526 29.2856C12.4984 29.3872 12.4522 29.4736 12.4142 29.5434L13.8706 29.596L13.85 30.2024L12.3938 30.1498C12.454 30.2802 12.5012 30.3844 12.5344 30.4612C12.5672 30.5394 12.5816 30.6646 12.5758 30.8382C12.5618 31.2466 12.39 31.5678 12.0602 31.8022C11.7304 32.0364 11.286 32.1432 10.7252 32.1228C10.4298 32.1122 10.1678 32.0638 9.93841 31.9776C9.71021 31.8902 9.5166 31.7762 9.3582 31.6336C9.2138 31.5014 9.10201 31.3514 9.02461 31.1826C8.94721 31.0128 8.91101 30.8376 8.917 30.6574C8.9214 30.5294 8.947 30.4144 8.9936 30.3126C9.0402 30.2118 9.09301 30.118 9.15021 30.033L7.63 29.9782L7.6506 29.372L9.1704 29.4266C9.1176 29.329 9.0716 29.217 9.0338 29.092C8.996 28.967 8.9786 28.8394 8.9832 28.7082C8.997 28.2996 9.1664 27.984 9.4916 27.7594C9.8166 27.535 10.2458 27.4322 10.7788 27.4514ZM10.8242 28.0826C10.4218 28.068 10.1012 28.1266 9.8624 28.2584C9.6236 28.3902 9.5 28.593 9.491 28.8666C9.487 28.9804 9.4976 29.0798 9.5238 29.1664C9.549 29.2532 9.5774 29.3456 9.6074 29.4424L11.9612 29.527C12.0088 29.433 12.048 29.3564 12.077 29.2974C12.106 29.2394 12.1228 29.1522 12.1268 29.0374C12.1364 28.7548 12.0316 28.5282 11.8116 28.3598C11.5918 28.1906 11.262 28.0984 10.8242 28.0826ZM11.9406 30.1334L9.5868 30.0488C9.5484 30.1254 9.51361 30.2032 9.48401 30.2802C9.45461 30.3572 9.4374 30.4432 9.4342 30.539C9.4248 30.8172 9.52401 31.0424 9.7308 31.2124C9.938 31.3838 10.2676 31.477 10.7184 31.4932C11.1284 31.508 11.4544 31.4462 11.6956 31.3078C11.937 31.1694 12.0616 30.9634 12.0708 30.6896C12.0746 30.5816 12.0616 30.4832 12.0334 30.3942C12.005 30.3064 11.9746 30.2196 11.9406 30.1334ZM13.2034 25.5536C13.1492 25.7968 13.062 26.0112 12.944 26.198C12.826 26.3836 12.6764 26.532 12.4954 26.643C12.3144 26.7542 12.1028 26.8228 11.8596 26.8506C11.6164 26.8772 11.3436 26.8544 11.0398 26.7822C10.7376 26.7102 10.4864 26.6058 10.2854 26.47C10.0842 26.334 9.9242 26.1782 9.805 26.0026C9.6872 25.827 9.6102 25.6258 9.576 25.3974C9.5416 25.1698 9.5508 24.9352 9.6044 24.6966C9.648 24.5014 9.7162 24.32 9.8106 24.1518C9.905 23.9832 10.003 23.8364 10.1042 23.711L10.7542 23.8658L10.7464 23.9002C10.7022 23.9344 10.65 23.98 10.5898 24.0354C10.5294 24.092 10.4654 24.1614 10.3966 24.2456C10.3372 24.3182 10.2794 24.4072 10.2238 24.5128C10.1684 24.6172 10.1282 24.722 10.105 24.8264C10.0356 25.1352 10.0936 25.4108 10.279 25.6526C10.4628 25.894 10.7628 26.0636 11.1784 26.1626C11.5842 26.2592 11.9222 26.2438 12.189 26.1166C12.4568 25.9896 12.6264 25.766 12.6984 25.4438C12.7422 25.2486 12.7448 25.0538 12.7062 24.8594C12.6676 24.6652 12.602 24.4848 12.509 24.32L12.5168 24.2854L13.1668 24.4402C13.1808 24.5062 13.1958 24.5876 13.2138 24.6856C13.2328 24.7838 13.2422 24.8706 13.245 24.9478C13.2506 25.0554 13.2524 25.1518 13.2498 25.2368C13.2478 25.3208 13.2318 25.4268 13.2034 25.5536ZM13.101 20.5514C13.64 20.8106 13.996 21.1452 14.1676 21.5532C14.3398 21.9626 14.3248 22.3906 14.1236 22.8356C13.9162 23.2946 13.6014 23.5828 13.1802 23.701C12.7578 23.8184 12.2876 23.752 11.7672 23.5016C11.2328 23.2446 10.8782 22.9094 10.7046 22.4954C10.5304 22.0826 10.5442 21.6542 10.745 21.2104C10.946 20.7654 11.2554 20.4792 11.6722 20.353C12.0872 20.2272 12.5648 20.2934 13.101 20.5514ZM12.8418 21.1244C12.428 20.9254 12.0848 20.8548 11.8126 20.9144C11.5408 20.9728 11.3396 21.1462 11.2096 21.4338C11.0786 21.7236 11.0782 21.9958 11.209 22.2492C11.34 22.5026 11.6124 22.7294 12.0262 22.9286C12.4272 23.1214 12.7672 23.189 13.0452 23.1324C13.3232 23.0758 13.5284 22.9016 13.6592 22.612C13.7882 22.3264 13.7868 22.0554 13.6542 21.8014C13.5214 21.547 13.2506 21.3212 12.8418 21.1244ZM16.2082 16.1444C16.6686 16.529 16.9354 16.941 17.008 17.3814C17.0804 17.8212 16.9686 18.2292 16.673 18.6056C16.3822 18.976 16.0338 19.1704 15.627 19.19C15.219 19.2088 14.802 19.0586 14.3772 18.7366L13.9852 19.2358L15.2336 20.2784L14.8594 20.755L12.1144 18.4626L12.4886 17.9858L13.607 18.9198L14.007 18.4102C13.6644 18.0596 13.4722 17.687 13.4318 17.2922C13.3918 16.8978 13.506 16.5292 13.7756 16.1858C14.0876 15.7886 14.4602 15.5898 14.8948 15.5904C15.3284 15.5898 15.766 15.7752 16.2082 16.1444ZM15.8224 16.6358C15.4726 16.3436 15.157 16.1904 14.8776 16.1762C14.5984 16.1622 14.3636 16.277 14.1742 16.5184C13.9818 16.7632 13.9212 17.0262 13.9944 17.3066C14.0674 17.5868 14.2778 17.8726 14.624 18.162C14.968 18.4492 15.2812 18.6004 15.5636 18.616C15.8468 18.6302 16.084 18.516 16.2746 18.2728C16.4644 18.0316 16.5254 17.7714 16.4564 17.4948C16.3874 17.2182 16.1764 16.9314 15.8224 16.6358ZM19.185 14.616C19.3128 14.773 19.3872 14.9338 19.4092 15.0994C19.431 15.265 19.4162 15.4248 19.364 15.5774C19.3156 15.7238 19.2416 15.8666 19.1392 16.0058C19.0378 16.1444 18.9246 16.2686 18.7982 16.3782C18.6212 16.5312 18.438 16.6594 18.2508 16.7602C18.0638 16.861 17.8594 16.9406 17.6392 16.9974L17.2168 16.478L17.2456 16.4528C17.4408 16.4626 17.6456 16.4266 17.8602 16.344C18.0748 16.2616 18.2652 16.149 18.4298 16.0068C18.5008 15.9452 18.5706 15.8714 18.6394 15.7846C18.708 15.6992 18.7572 15.6142 18.7862 15.5324C18.8228 15.421 18.8352 15.3258 18.823 15.2448C18.8114 15.1646 18.7676 15.0778 18.691 14.984C18.61 14.8842 18.5266 14.8198 18.4408 14.7908C18.3546 14.7608 18.2684 14.7586 18.181 14.783C18.094 14.8076 18.0082 14.8496 17.9234 14.91C17.8396 14.9694 17.7542 15.0376 17.6664 15.1136L17.3474 15.3898L17.0178 14.9846L17.2626 14.7728C17.3236 14.7198 17.3984 14.6522 17.4876 14.568C17.5756 14.4844 17.639 14.4078 17.6754 14.3384C17.7234 14.2518 17.7482 14.1664 17.7504 14.0804C17.7522 13.9946 17.7056 13.894 17.6112 13.778C17.5444 13.6958 17.474 13.6452 17.3974 13.6258C17.3216 13.6072 17.245 13.6064 17.1692 13.6242C17.0894 13.6422 17.0134 13.6734 16.9398 13.718C16.8664 13.7628 16.8 13.8112 16.7396 13.8634C16.5866 13.9958 16.4578 14.1454 16.3518 14.3114C16.2462 14.4782 16.1782 14.649 16.1466 14.823L16.1174 14.8482L15.7046 14.3408C15.788 14.1988 15.8864 14.0514 16.002 13.8974C16.1178 13.7434 16.246 13.6048 16.3882 13.4816C16.503 13.3822 16.6294 13.2934 16.768 13.2142C16.9062 13.1366 17.052 13.08 17.206 13.0458C17.3526 13.0162 17.5002 13.021 17.6482 13.0612C17.7972 13.1024 17.9296 13.194 18.0464 13.3372C18.1692 13.4884 18.236 13.6572 18.2454 13.8436C18.2548 14.0302 18.2058 14.2006 18.0986 14.356L18.113 14.3738C18.3066 14.2966 18.4964 14.2716 18.6818 14.299C18.8672 14.3256 19.0352 14.4318 19.185 14.616ZM22.6768 13.6116L22.1566 13.909L21.3858 12.4748L19.9868 13.2744L20.7576 14.7088L20.2374 15.0062L18.5252 11.8202L19.0454 11.5228L19.7382 12.812L21.1372 12.012L20.4444 10.723L20.9646 10.4254L22.6768 13.6116ZM24.9898 11.8652L24.6866 10.9026C24.556 10.9604 24.392 11.034 24.1934 11.1242C23.994 11.2154 23.8386 11.3016 23.7244 11.383C23.5886 11.4812 23.4874 11.596 23.4208 11.7272C23.353 11.8576 23.347 12.0116 23.4024 12.1874C23.4652 12.3864 23.5668 12.5186 23.7064 12.5832C23.8472 12.6482 24.0214 12.646 24.2298 12.5762C24.4084 12.5164 24.5568 12.4222 24.6766 12.2942C24.7954 12.1668 24.9002 12.024 24.9898 11.8652ZM25.1424 12.35C25.1074 12.4004 25.061 12.4698 25.004 12.5592C24.9468 12.6476 24.888 12.7234 24.8276 12.7844C24.7442 12.8722 24.6606 12.9458 24.5762 13.0056C24.4918 13.0656 24.366 13.124 24.1976 13.1804C24.059 13.227 23.9194 13.2444 23.7782 13.2322C23.637 13.2198 23.5044 13.1812 23.3792 13.1154C23.259 13.0504 23.1498 12.957 23.0518 12.8354C22.953 12.714 22.8802 12.5754 22.8316 12.421C22.7558 12.1806 22.7406 11.9598 22.786 11.7584C22.8302 11.5564 22.9442 11.3706 23.1246 11.2004C23.2852 11.048 23.4886 10.912 23.7348 10.792C23.9806 10.672 24.2488 10.5542 24.54 10.4378L24.505 10.3266C24.462 10.19 24.4068 10.0868 24.34 10.0156C24.2736 9.94519 24.198 9.89919 24.1106 9.87799C24.0238 9.85459 23.9258 9.85339 23.817 9.87239C23.7074 9.89159 23.5984 9.91999 23.4886 9.95679C23.3582 10.0006 23.2106 10.0722 23.0476 10.1712C22.8838 10.2708 22.7258 10.3892 22.5734 10.5246L22.5402 10.5356L22.3536 9.94259C22.4486 9.87679 22.587 9.79299 22.7692 9.69099C22.9526 9.58839 23.1384 9.50499 23.3294 9.44119C23.5594 9.36399 23.7606 9.31759 23.9304 9.30179C24.1002 9.28579 24.2638 9.30479 24.4206 9.35999C24.5728 9.41419 24.7028 9.50639 24.8102 9.63779C24.9184 9.76799 25.006 9.94219 25.0742 10.1592L25.8212 12.53L25.2586 12.7184L25.1424 12.35ZM29.1284 12.04L28.538 12.1146L28.3672 10.6804L27.7834 10.7542L26.9172 12.32L26.2284 12.4072L27.1778 10.7748C26.876 10.7232 26.6484 10.6186 26.4926 10.4614C26.3368 10.3038 26.2414 10.078 26.2064 9.78399C26.1852 9.60499 26.205 9.44319 26.265 9.29879C26.325 9.15439 26.4142 9.02759 26.5328 8.91839C26.6292 8.83199 26.7546 8.76139 26.9098 8.70459C27.0642 8.64919 27.2398 8.60879 27.436 8.58419L28.698 8.42419L29.1284 12.04ZM28.3104 10.2008L28.1654 8.98419L27.5248 9.06539C27.3896 9.08239 27.2824 9.10379 27.206 9.12799C27.1296 9.15339 27.057 9.19279 26.9894 9.24519C26.92 9.30219 26.8698 9.37359 26.8408 9.45919C26.812 9.54479 26.803 9.63459 26.814 9.72619C26.828 9.84559 26.8524 9.93999 26.8882 10.0118C26.9226 10.0826 26.978 10.145 27.055 10.1992C27.1356 10.2542 27.2306 10.2858 27.3382 10.2924C27.4466 10.3002 27.5634 10.2952 27.6888 10.2794L28.3104 10.2008ZM35.1962 10.8196C35.093 11.4236 34.8718 11.8652 34.5342 12.1418C34.1952 12.4194 33.7906 12.5152 33.322 12.43C32.8382 12.342 32.4866 12.1028 32.2672 11.7138C32.0478 11.3232 31.9884 10.8376 32.0882 10.2544C32.1906 9.65579 32.4126 9.21559 32.7554 8.93539C33.097 8.65499 33.5016 8.55799 33.9694 8.64299C34.4382 8.72839 34.7862 8.96219 35.0124 9.34479C35.2376 9.72599 35.299 10.2188 35.1962 10.8196ZM34.5926 10.7098C34.672 10.246 34.649 9.88579 34.523 9.63019C34.398 9.37419 34.1832 9.21879 33.8802 9.16379C33.5752 9.10839 33.32 9.17839 33.1166 9.37419C32.9132 9.56999 32.7712 9.90039 32.692 10.3642C32.615 10.8138 32.6398 11.1698 32.7648 11.432C32.89 11.6946 33.1058 11.8536 33.411 11.9092C33.7118 11.964 33.9652 11.8924 34.1688 11.6944C34.3728 11.4962 34.514 11.1682 34.5926 10.7098ZM38.8086 12.2126C38.5978 12.779 38.2992 13.1782 37.9112 13.4098C37.5234 13.6414 37.129 13.6786 36.727 13.5194C36.5636 13.4546 36.427 13.3778 36.3154 13.2896C36.2036 13.2012 36.0966 13.091 35.995 12.9576L35.4646 14.3826L34.9094 14.1628L36.642 9.50739L37.1972 9.72719L37.0648 10.0828C37.2504 10.0096 37.4434 9.96319 37.6438 9.94339C37.8434 9.92359 38.0434 9.95379 38.2418 10.0326C38.6198 10.1822 38.857 10.4524 38.9536 10.845C39.0504 11.2374 39.0022 11.693 38.8086 12.2126ZM38.2124 12.0504C38.3568 11.6626 38.4084 11.3372 38.3684 11.0758C38.328 10.8142 38.1736 10.6302 37.9034 10.5232C37.7462 10.4608 37.5806 10.437 37.4076 10.451C37.2338 10.4646 37.0598 10.5028 36.8858 10.564L36.1686 12.4908C36.2872 12.6226 36.3926 12.7216 36.4866 12.7886C36.58 12.8552 36.6938 12.9158 36.8278 12.969C37.1148 13.0826 37.3778 13.0628 37.6188 12.909C37.859 12.7548 38.057 12.4682 38.2124 12.0504ZM42.078 12.9144L40.6784 12.0122L39.0832 14.6454L38.5788 14.3202L40.4504 11.231L42.3544 12.4582L42.078 12.9144ZM42.7674 16.4608L43.398 15.6854C43.2814 15.602 43.134 15.4976 42.9548 15.3716C42.7738 15.2454 42.6206 15.155 42.4932 15.0986C42.3404 15.0316 42.1928 15.004 42.0496 15.0154C41.9064 15.025 41.7764 15.1016 41.6614 15.2432C41.5308 15.4036 41.4762 15.5626 41.497 15.7186C41.518 15.8766 41.6122 16.0276 41.78 16.173C41.924 16.2974 42.08 16.3772 42.2486 16.4142C42.4164 16.4506 42.5894 16.4666 42.7674 16.4608ZM42.4498 16.8512C42.3896 16.8474 42.308 16.8436 42.2044 16.8412C42.1016 16.8378 42.0078 16.8264 41.9256 16.8062C41.8092 16.7794 41.7046 16.7454 41.6106 16.7034C41.5164 16.6612 41.4018 16.5822 41.2662 16.465C41.1546 16.3684 41.066 16.2554 41.0014 16.1254C40.9368 15.9952 40.8984 15.859 40.886 15.7146C40.8758 15.5748 40.8948 15.4302 40.9428 15.2798C40.9904 15.129 41.0654 14.9918 41.1668 14.8674C41.3242 14.6738 41.4978 14.5434 41.6874 14.4766C41.8768 14.4082 42.0902 14.4096 42.3256 14.4768C42.536 14.537 42.7558 14.6426 42.9848 14.7942C43.2136 14.9458 43.4526 15.118 43.7026 15.311L43.7754 15.2216C43.865 15.1114 43.9206 15.0086 43.944 14.9124C43.9664 14.817 43.964 14.7264 43.9354 14.6388C43.9086 14.5504 43.8576 14.4642 43.7846 14.379C43.7108 14.2934 43.6294 14.213 43.541 14.1364C43.436 14.0454 43.2988 13.9542 43.1312 13.8644C42.9624 13.7738 42.7814 13.6984 42.5894 13.6368L42.5626 13.6136L42.9512 13.136C43.0558 13.1846 43.198 13.2608 43.3782 13.3662C43.5598 13.4724 43.727 13.5908 43.8806 13.7238C44.0662 13.8842 44.2106 14.0356 44.3136 14.1758C44.4166 14.3158 44.4878 14.4688 44.5258 14.6354C44.5618 14.7974 44.5548 14.9598 44.5038 15.1234C44.4538 15.2868 44.357 15.456 44.2148 15.6308L42.6612 17.5404L42.2082 17.148L42.4498 16.8512ZM44.8006 20.4454L44.451 19.949L45.7374 18.9852L44.7972 17.6504L43.5108 18.6142L43.1612 18.118L46.0184 15.9768L46.3682 16.4732L45.212 17.3396L46.1522 18.6742L47.3082 17.8078L47.658 18.3042L44.8006 20.4454ZM46.4098 23.7754L46.161 23.2252L48.5482 22.0772L45.4576 21.6694L45.2306 21.167L48.4316 19.6276L48.68 20.1774L46.33 21.3076L49.3752 21.715L49.6106 22.2358L46.4098 23.7754ZM48.1638 26.6334C47.971 26.6828 47.7984 26.6814 47.6444 26.6292C47.4906 26.5768 47.3578 26.493 47.2478 26.3778C47.141 26.2686 47.0492 26.1374 46.9728 25.9814C46.8966 25.8268 46.838 25.6674 46.798 25.502C46.7422 25.2708 46.7108 25.045 46.7048 24.8272C46.699 24.6096 46.7194 24.3854 46.7664 24.1562L47.4042 23.9922L47.4134 24.03C47.3192 24.207 47.261 24.4122 47.2386 24.6476C47.2166 24.8828 47.2312 25.1084 47.2832 25.3234C47.3054 25.4162 47.3392 25.5134 47.3846 25.6152C47.4292 25.7162 47.4816 25.799 47.5402 25.8618C47.6212 25.9444 47.6988 25.9978 47.7746 26.0218C47.8494 26.0464 47.9444 26.0436 48.0596 26.0142C48.1824 25.9824 48.275 25.9334 48.3378 25.867C48.4016 25.7998 48.4414 25.7208 48.4584 25.6292C48.4752 25.5378 48.4762 25.44 48.4606 25.335C48.4456 25.231 48.4236 25.122 48.396 25.0074L48.2952 24.5904L48.7928 24.4624L48.87 24.7822C48.8892 24.862 48.9154 24.961 48.9498 25.0806C48.9842 25.199 49.023 25.2914 49.0674 25.3556C49.122 25.438 49.1854 25.4986 49.2594 25.538C49.3336 25.5774 49.4416 25.5782 49.5842 25.5416C49.6846 25.5158 49.7598 25.4724 49.8106 25.41C49.86 25.348 49.894 25.2772 49.9116 25.1992C49.931 25.1174 49.9374 25.0334 49.9304 24.9456C49.9238 24.8576 49.9106 24.7752 49.8916 24.6962C49.843 24.4964 49.7696 24.311 49.6716 24.14C49.5722 23.9692 49.453 23.8314 49.3156 23.7258L49.3062 23.6878L49.9294 23.5274C50.0166 23.667 50.102 23.823 50.1852 23.9976C50.2688 24.1722 50.3334 24.352 50.3784 24.5378C50.4146 24.6878 50.4368 24.844 50.445 25.007C50.452 25.1694 50.4372 25.3292 50.3996 25.487C50.3612 25.6356 50.2924 25.7704 50.1924 25.8902C50.0912 26.0102 49.9532 26.0928 49.7772 26.1382C49.5918 26.1858 49.4156 26.1736 49.2488 26.1008C49.082 26.0276 48.955 25.9076 48.8668 25.74L48.8446 25.7456C48.8272 25.959 48.7658 26.1458 48.6608 26.3058C48.556 26.4658 48.39 26.575 48.1638 26.6334ZM48.3008 29.3684L49.2784 29.2802C49.253 29.136 49.2206 28.9548 49.18 28.7348C49.1386 28.5138 49.0924 28.338 49.0408 28.2054C48.9788 28.0466 48.8932 27.9192 48.7842 27.8228C48.6764 27.7252 48.5318 27.6846 48.3536 27.7008C48.1514 27.7188 48.0034 27.7914 47.9112 27.9172C47.818 28.044 47.781 28.2194 47.8 28.4446C47.8166 28.6378 47.8722 28.808 47.966 28.957C48.0596 29.1052 48.1712 29.2426 48.3008 29.3684ZM47.8086 29.4128C47.7688 29.3662 47.7136 29.304 47.6418 29.2266C47.5716 29.1492 47.513 29.073 47.4688 28.9986C47.4048 28.895 47.354 28.7944 47.3166 28.6962C47.279 28.5978 47.252 28.4584 47.2364 28.2764C47.2238 28.1268 47.2384 27.9824 47.282 27.8432C47.3254 27.704 47.3916 27.5796 47.4822 27.4686C47.5706 27.3624 47.6834 27.2738 47.8202 27.2022C47.9574 27.1308 48.1044 27.0884 48.2614 27.0742C48.5054 27.0522 48.7174 27.0868 48.8974 27.1778C49.0784 27.2674 49.2282 27.424 49.3488 27.6434C49.4562 27.8394 49.539 28.0744 49.597 28.3486C49.655 28.6226 49.706 28.9186 49.7504 29.2376L49.8634 29.2274C50.002 29.2148 50.1118 29.1826 50.1944 29.1316C50.2756 29.0806 50.3362 29.0148 50.3758 28.932C50.4174 28.8498 50.4406 28.7518 50.4472 28.6382C50.4536 28.5236 50.4514 28.4076 50.4412 28.289C50.4294 28.148 50.395 27.9836 50.338 27.7978C50.281 27.6106 50.2044 27.4254 50.111 27.2416L50.1078 27.2058L50.71 27.1516C50.7508 27.262 50.799 27.4196 50.8544 27.626C50.91 27.8332 50.9468 28.039 50.9644 28.245C50.9854 28.4936 50.984 28.7062 50.9606 28.8802C50.9376 29.0544 50.883 29.2146 50.7954 29.36C50.71 29.5008 50.5936 29.6108 50.4454 29.689C50.2982 29.7682 50.1138 29.8172 49.8934 29.837L47.4858 30.0542L47.4342 29.4466L47.8086 29.4128ZM46.2254 33.977L46.293 33.41L47.1342 33.5166L47.4466 30.891L50.9522 31.3352L50.8798 31.944L47.8832 31.5646L47.6908 33.18L50.6874 33.5594L50.615 34.1684L47.6184 33.789L47.5756 34.148L46.2254 33.977ZM46.0464 37.2838L46.2284 36.7066L48.733 37.546L46.7426 35.074L46.9088 34.5468L50.2676 35.6724L50.0858 36.2494L47.62 35.4232L49.5776 37.8632L49.4054 38.4096L46.0464 37.2838ZM44.3912 40.2448L44.6756 39.7156L45.8842 40.4066L46.1656 39.8832L45.4566 38.2622L45.7884 37.6446L46.5006 39.3728C46.7154 39.1542 46.9286 39.0274 47.1406 38.9904C47.353 38.9536 47.583 39.006 47.8304 39.1476C47.9816 39.2338 48.0952 39.344 48.172 39.4772C48.2492 39.6104 48.2952 39.7572 48.3112 39.9182C48.322 40.0474 48.3044 40.1918 48.2578 40.3524C48.2114 40.5118 48.1408 40.6796 48.0462 40.8554L47.4382 41.9868L44.3912 40.2448ZM46.2882 40.6376L47.3136 41.224L47.6224 40.6496C47.6876 40.5286 47.733 40.4278 47.7586 40.3506C47.7832 40.2732 47.7948 40.1906 47.7936 40.1046C47.7896 40.0144 47.7634 39.9316 47.714 39.8582C47.6648 39.7846 47.6002 39.7254 47.523 39.6812C47.4226 39.6238 47.3354 39.589 47.259 39.5766C47.1844 39.564 47.104 39.5732 47.0174 39.6054C46.9282 39.6398 46.8484 39.6998 46.781 39.7844C46.7122 39.8694 46.648 39.9682 46.5878 40.0806L46.2882 40.6376Z" fill="#E31E24"/>
<path d="M22.235 45.7554C24.8276 46.9234 27.4178 47.4822 30.0056 47.4838C32.5952 47.4856 35.1898 46.9292 37.7884 45.8668L38.0714 46.568C35.3872 47.6654 32.6988 48.24 30.0056 48.2382C27.311 48.2364 24.6186 47.6566 21.9286 46.4448L22.235 45.7554Z" fill="#E31E24"/>
</g>
<defs>
<clipPath id="clip0_107_2053">
<rect width="60" height="60" fill="white"/>
</clipPath>
</defs>
</svg>
